<?xml version="1.0" standalone="no"?><!DOCTYPE svg PUBLIC "-//W3C//DTD SVG 1.1//EN" "http://www.w3.org/Graphics/SVG/1.1/DTD/svg11.dtd"><svg t="1718449612764" class="icon" viewBox="0 0 1024 1024" version="1.1" xmlns="http://www.w3.org/2000/svg" p-id="4333" xmlns:xlink="http://www.w3.org/1999/xlink" width="260" height="260"><path d="M860.448 768H163.552A97.952 97.952 0 0 1 64 672V352a97.952 97.952 0 0 1 99.552-96h696.896A97.952 97.952 0 0 1 960 352v320a97.952 97.952 0 0 1-99.552 96zM163.552 320a32.64 32.64 0 0 0-33.184 32v320a32.64 32.64 0 0 0 33.184 32h696.896a32.64 32.64 0 0 0 33.184-32V352a32.64 32.64 0 0 0-33.184-32z" fill="#8a8a8a" p-id="4334"></path><path d="M727.712 480h-66.368a32 32 0 1 1 0-64h66.368a32 32 0 1 1 0 64zM794.08 608h-132.736a32 32 0 1 1 0-64h132.736a32 32 0 1 1 0 64zM390.944 512a109.184 109.184 0 0 1-8.192 43.808 85.152 85.152 0 0 1-22.4 31.104l27.616 33.44h-38.08l-15.584-18.432a98.4 98.4 0 0 1-33.824 5.728 94.112 94.112 0 0 1-46.208-11.296 81.248 81.248 0 0 1-32.32-32.672A104.832 104.832 0 0 1 210.112 512a104.992 104.992 0 0 1 11.904-51.808 81.28 81.28 0 0 1 32.32-32.608 100.416 100.416 0 0 1 92.288 0 81.44 81.44 0 0 1 32.384 32.608A104.672 104.672 0 0 1 390.944 512z m-104.544 28.352h34.688l14.336 17.728a54.4 54.4 0 0 0 10.4-19.2 86.976 86.976 0 0 0 3.744-26.88 67.488 67.488 0 0 0-13.408-45.216 44.576 44.576 0 0 0-35.616-15.584 44.8 44.8 0 0 0-35.648 15.616A67.488 67.488 0 0 0 251.52 512a67.584 67.584 0 0 0 13.376 45.184 44.544 44.544 0 0 0 35.648 15.648 53.248 53.248 0 0 0 10.56-1.024zM435.2 608v-192h40.832v159.552h82.784V608z" fill="#8a8a8a" p-id="4335"></path></svg>